<mxfile host="app.diagrams.net" modified="2022-04-20T20:37:11.382Z" agent="5.0 (Windows NT 10.0; Win64; x64) AppleWebKit/537.36 (KHTML, like Gecko) Chrome/100.0.4896.127 Safari/537.36" etag="6F5ukaV_YM_0zkISICZH" version="17.4.6" type="github">
  <diagram id="LHlzL4TyF_nUOfYXrU7R" name="Страница 1">
    <mxGraphModel dx="1038" dy="1701" grid="1" gridSize="10" guides="1" tooltips="1" connect="1" arrows="1" fold="1" page="1" pageScale="1" pageWidth="827" pageHeight="1169" math="0" shadow="0">
      <root>
        <mxCell id="0" />
        <mxCell id="1" parent="0" />
        <mxCell id="0rxV0hYMB-qf7XBsNfkE-3" style="edgeStyle=orthogonalEdgeStyle;rounded=0;orthogonalLoop=1;jettySize=auto;html=1;exitX=0.5;exitY=1;exitDx=0;exitDy=0;entryX=0.5;entryY=0;entryDx=0;entryDy=0;" parent="1" source="0rxV0hYMB-qf7XBsNfkE-1" target="0rxV0hYMB-qf7XBsNfkE-2" edge="1">
          <mxGeometry relative="1" as="geometry" />
        </mxCell>
        <mxCell id="0rxV0hYMB-qf7XBsNfkE-1" value="Начало" style="ellipse;whiteSpace=wrap;html=1;" parent="1" vertex="1">
          <mxGeometry x="310" y="-1140" width="120" height="80" as="geometry" />
        </mxCell>
        <mxCell id="Me6ABLHHBA8ChE3yrugC-2" style="edgeStyle=orthogonalEdgeStyle;rounded=0;orthogonalLoop=1;jettySize=auto;html=1;exitX=0.5;exitY=1;exitDx=0;exitDy=0;entryX=0.5;entryY=0;entryDx=0;entryDy=0;" edge="1" parent="1" source="0rxV0hYMB-qf7XBsNfkE-2" target="Me6ABLHHBA8ChE3yrugC-1">
          <mxGeometry relative="1" as="geometry" />
        </mxCell>
        <mxCell id="0rxV0hYMB-qf7XBsNfkE-2" value="введите строчную букву английского алфавита" style="shape=parallelogram;perimeter=parallelogramPerimeter;whiteSpace=wrap;html=1;fixedSize=1;" parent="1" vertex="1">
          <mxGeometry x="250" y="-1010" width="240" height="80" as="geometry" />
        </mxCell>
        <mxCell id="Me6ABLHHBA8ChE3yrugC-4" style="edgeStyle=orthogonalEdgeStyle;rounded=0;orthogonalLoop=1;jettySize=auto;html=1;exitX=0.5;exitY=1;exitDx=0;exitDy=0;entryX=0.529;entryY=0;entryDx=0;entryDy=0;entryPerimeter=0;" edge="1" parent="1" source="Me6ABLHHBA8ChE3yrugC-1" target="Me6ABLHHBA8ChE3yrugC-3">
          <mxGeometry relative="1" as="geometry" />
        </mxCell>
        <mxCell id="Me6ABLHHBA8ChE3yrugC-1" value="записываем букву в переменную letter_1" style="rounded=0;whiteSpace=wrap;html=1;" vertex="1" parent="1">
          <mxGeometry x="310" y="-900" width="120" height="60" as="geometry" />
        </mxCell>
        <mxCell id="Me6ABLHHBA8ChE3yrugC-6" style="edgeStyle=orthogonalEdgeStyle;rounded=0;orthogonalLoop=1;jettySize=auto;html=1;exitX=0.5;exitY=1;exitDx=0;exitDy=0;entryX=0.7;entryY=-0.037;entryDx=0;entryDy=0;entryPerimeter=0;" edge="1" parent="1" source="Me6ABLHHBA8ChE3yrugC-3" target="Me6ABLHHBA8ChE3yrugC-5">
          <mxGeometry relative="1" as="geometry" />
        </mxCell>
        <mxCell id="Me6ABLHHBA8ChE3yrugC-3" value="введите еще одну строчную букву английского алфавита" style="shape=parallelogram;perimeter=parallelogramPerimeter;whiteSpace=wrap;html=1;fixedSize=1;" vertex="1" parent="1">
          <mxGeometry x="190" y="-800" width="380" height="70" as="geometry" />
        </mxCell>
        <mxCell id="Me6ABLHHBA8ChE3yrugC-10" style="edgeStyle=orthogonalEdgeStyle;rounded=0;orthogonalLoop=1;jettySize=auto;html=1;" edge="1" parent="1" source="Me6ABLHHBA8ChE3yrugC-5" target="Me6ABLHHBA8ChE3yrugC-8">
          <mxGeometry relative="1" as="geometry" />
        </mxCell>
        <mxCell id="Me6ABLHHBA8ChE3yrugC-5" value="записываем букву в переменную letter_2" style="rounded=0;whiteSpace=wrap;html=1;" vertex="1" parent="1">
          <mxGeometry x="310" y="-680" width="120" height="60" as="geometry" />
        </mxCell>
        <mxCell id="Me6ABLHHBA8ChE3yrugC-11" style="edgeStyle=orthogonalEdgeStyle;rounded=0;orthogonalLoop=1;jettySize=auto;html=1;" edge="1" parent="1" source="Me6ABLHHBA8ChE3yrugC-8" target="Me6ABLHHBA8ChE3yrugC-9">
          <mxGeometry relative="1" as="geometry" />
        </mxCell>
        <mxCell id="Me6ABLHHBA8ChE3yrugC-8" value="определяем место в алфавите для 1 буквы&lt;br&gt;ord(letter_1) - 96" style="rounded=0;whiteSpace=wrap;html=1;" vertex="1" parent="1">
          <mxGeometry x="225" y="-560" width="290" height="60" as="geometry" />
        </mxCell>
        <mxCell id="Me6ABLHHBA8ChE3yrugC-13" style="edgeStyle=orthogonalEdgeStyle;rounded=0;orthogonalLoop=1;jettySize=auto;html=1;" edge="1" parent="1" source="Me6ABLHHBA8ChE3yrugC-9" target="Me6ABLHHBA8ChE3yrugC-12">
          <mxGeometry relative="1" as="geometry" />
        </mxCell>
        <mxCell id="Me6ABLHHBA8ChE3yrugC-9" value="определяем место в алфавите для 2 буквы&lt;br&gt;ord(letter_2) - 96" style="rounded=0;whiteSpace=wrap;html=1;" vertex="1" parent="1">
          <mxGeometry x="200" y="-420" width="290" height="60" as="geometry" />
        </mxCell>
        <mxCell id="Me6ABLHHBA8ChE3yrugC-17" style="edgeStyle=orthogonalEdgeStyle;rounded=0;orthogonalLoop=1;jettySize=auto;html=1;exitX=0.5;exitY=1;exitDx=0;exitDy=0;entryX=0.5;entryY=0;entryDx=0;entryDy=0;" edge="1" parent="1" source="Me6ABLHHBA8ChE3yrugC-12" target="Me6ABLHHBA8ChE3yrugC-14">
          <mxGeometry relative="1" as="geometry" />
        </mxCell>
        <mxCell id="Me6ABLHHBA8ChE3yrugC-12" value="определяем сколько букв находится между ними:&lt;br&gt;between = ord(letter_1) - ord(letter_2) -1" style="rounded=0;whiteSpace=wrap;html=1;" vertex="1" parent="1">
          <mxGeometry x="115" y="-310" width="530" height="60" as="geometry" />
        </mxCell>
        <mxCell id="Me6ABLHHBA8ChE3yrugC-18" style="edgeStyle=orthogonalEdgeStyle;rounded=0;orthogonalLoop=1;jettySize=auto;html=1;entryX=0.5;entryY=0;entryDx=0;entryDy=0;" edge="1" parent="1" source="Me6ABLHHBA8ChE3yrugC-14" target="Me6ABLHHBA8ChE3yrugC-15">
          <mxGeometry relative="1" as="geometry" />
        </mxCell>
        <mxCell id="Me6ABLHHBA8ChE3yrugC-14" value="выводим место в алфавите 1 буквы: ord(letter_1) - 96&lt;br&gt;выводим место в алфавите 2 буквы: ord(letter_2) - 96" style="shape=parallelogram;perimeter=parallelogramPerimeter;whiteSpace=wrap;html=1;fixedSize=1;" vertex="1" parent="1">
          <mxGeometry x="210" y="-220" width="340" height="80" as="geometry" />
        </mxCell>
        <mxCell id="Me6ABLHHBA8ChE3yrugC-20" style="edgeStyle=orthogonalEdgeStyle;rounded=0;orthogonalLoop=1;jettySize=auto;html=1;entryX=0.5;entryY=0;entryDx=0;entryDy=0;" edge="1" parent="1" source="Me6ABLHHBA8ChE3yrugC-15" target="Me6ABLHHBA8ChE3yrugC-19">
          <mxGeometry relative="1" as="geometry" />
        </mxCell>
        <mxCell id="Me6ABLHHBA8ChE3yrugC-15" value="between" style="shape=parallelogram;perimeter=parallelogramPerimeter;whiteSpace=wrap;html=1;fixedSize=1;" vertex="1" parent="1">
          <mxGeometry x="225" y="-100" width="300" height="60" as="geometry" />
        </mxCell>
        <mxCell id="Me6ABLHHBA8ChE3yrugC-19" value="Конец" style="ellipse;whiteSpace=wrap;html=1;" vertex="1" parent="1">
          <mxGeometry x="320" y="20" width="120" height="80" as="geometry" />
        </mxCell>
      </root>
    </mxGraphModel>
  </diagram>
</mxfile>
